<svg id="Capa_1" enable-background="new 0 0 512 512" height="512" viewBox="0 0 512 512" width="512" xmlns="http://www.w3.org/2000/svg"><g><path d="m512 256c0 141.385-114.615 256-256 256s-256-114.615-256-256 114.615-256 256-256 256 114.615 256 256z" fill="#44bfd7"/><path d="m285 200h-80c-8.284 0-15-6.716-15-15s6.716-15 15-15h80c8.284 0 15 6.716 15 15s-6.716 15-15 15zm-110 120h-50c-8.284 0-15 6.716-15 15s6.716 15 15 15h50c8.284 0 15-6.716 15-15s-6.716-15-15-15zm-50-170h119.576c8.077 0 15.027-6.207 15.407-14.275.406-8.614-6.458-15.725-14.983-15.725h-10.424c-8.05 0-14.576-6.526-14.576-14.576v-.424c0-8.284-6.716-15-15-15h-50c-8.284 0-15 6.716-15 15v.424c0 8.05-6.526 14.576-14.576 14.576-8.077 0-15.027 6.207-15.407 14.275-.406 8.614 6.458 15.725 14.983 15.725zm170 260h-50c-8.284 0-15 6.716-15 15s6.716 15 15 15h50c8.284 0 15-6.716 15-15s-6.716-15-15-15zm180-140h-80c-8.284 0-15 6.716-15 15s6.716 15 15 15h80c8.284 0 15-6.716 15-15s-6.716-15-15-15zm-140-190h-50c-8.284 0-15 6.716-15 15s6.716 15 15 15h50c8.284 0 15-6.716 15-15s-6.716-15-15-15z" fill="#7cd2e3"/><path d="m265.964 269.878-150.631 31.004c-.002 0-.003 0-.005.001l-21.996 4.527c-7.708 1.586-15.332-3.054-17.463-10.629l-35.304-125.459c-2.358-8.38 2.889-17 11.415-18.755 10.8-2.223 21.886 2.204 28.184 11.256l39.329 56.526 81.369-16.748c35.161-7.237 69.532 15.4 76.769 50.561 1.671 8.114-3.553 16.046-11.667 17.716z" fill="#ffc14f"/><path d="m110.532 301.87-17.2 3.54c-7.708 1.586-15.332-3.054-17.463-10.629l-35.304-125.459c-2.358-8.38 2.889-17 11.415-18.755 4.303-.886 8.652-.716 12.725.382l39.752 141.269c1.09 3.87 3.249 7.169 6.075 9.652z" fill="#ff9f22"/><path d="m430.58 235.996-251.582 51.782c-21.638 4.454-42.789-9.477-47.243-31.115-4.454-21.638 9.477-42.789 31.115-47.243l202.609-41.702c20.431-4.205 40.594 1.676 55.323 14.24.651.555-1.056 1.836-.427 2.417 3.116 2.877 5.856 5.033 8.375 8.5.404.556 3.251 1.44 3.638 2.01 4.664 6.87 8.081 14.754 9.86 23.395 1.67 8.114-3.554 16.046-11.668 17.716z" fill="#ffcd71"/><path d="m243.065 386.897-10.018 2.062c-1.375.283-2.719-.602-3.002-1.977l-29.727-144.431 107.742-22.176-55.519 158.242c-1.485 4.233-5.082 7.376-9.476 8.28z" fill="#ffcd71"/><path d="m233.006 388.967c-4.057.835-8.023-1.777-8.858-5.834l-25.341-124.609c-.835-4.057 1.777-8.023 5.834-8.858s8.023 1.777 8.858 5.834l25.34 124.609c.836 4.058-1.775 8.023-5.833 8.858z" fill="#ffc14f"/><path d="m196.353 322.492c-.835-4.057 1.777-8.023 5.834-8.858l22.038-4.536c4.057-.835 8.023 1.777 8.858 5.834s-1.777 8.023-5.834 8.858l-22.038 4.536c-4.058.835-8.023-1.777-8.858-5.834zm43.786 26.721c-.835-4.057-4.801-6.669-8.858-5.834l-22.038 4.536c-4.057.835-6.669 4.801-5.834 8.858s4.801 6.669 8.858 5.834l22.038-4.536c4.057-.835 6.669-4.8 5.834-8.858z" fill="#ff9f22"/><path d="m322.009 209.947c.835 4.057-1.777 8.023-5.834 8.858l-112.639 23.184c-4.057.835-8.023-1.777-8.858-5.834s1.777-8.023 5.834-8.858l112.639-23.184c4.057-.836 8.023 1.777 8.858 5.834zm-137.126 28.223c-.835-4.057-4.801-6.669-8.858-5.834l-14.692 3.024c-4.057.835-6.669 4.801-5.834 8.858s4.801 6.669 8.858 5.834l14.692-3.024c4.057-.835 6.669-4.8 5.834-8.858zm235.916-56.214-83.161 17.117c-4.057.835-6.669 4.801-5.834 8.858s4.801 6.669 8.858 5.834l91.726-18.88c-3.289-4.843-7.197-9.183-11.589-12.929z" fill="#644189"/><path d="m416.16 95.84c-42.781-42.78-99.659-66.34-160.16-66.34s-117.379 23.56-160.16 66.34-66.34 99.66-66.34 160.16 23.56 117.379 66.34 160.16 99.66 66.34 160.16 66.34 117.379-23.56 160.16-66.34 66.34-99.659 66.34-160.16-23.56-117.379-66.34-160.16zm-309.713 10.607c41.232-41.232 95.392-61.848 149.553-61.848 49.949 0 99.898 17.534 139.706 52.603l-298.504 298.504c-73.094-82.972-70.013-210.002 9.245-289.259zm299.106 299.106c-82.11 82.11-215.492 82.462-298.042 1.057l299.099-299.099c81.405 82.55 81.053 215.932-1.057 298.042z" fill="#fff5f5"/><path d="m512 385c0 63.513-51.487 115-115 115s-115-51.487-115-115 51.487-115 115-115 115 51.487 115 115z" fill="#fb5858"/><path d="m487.357 385c0 49.903-40.454 90.357-90.357 90.357s-90.357-40.454-90.357-90.357 40.454-90.357 90.357-90.357 90.357 40.454 90.357 90.357z" fill="#fff5f5"/><path d="m470 373.158v23.684c0 4.36-3.535 7.895-7.895 7.895s-7.895-3.535-7.895-7.895v-5.921l-21.367 5.342c-.783 2.636-1.834 5.156-3.122 7.53l11.333 18.889 4.187-4.187c3.083-3.083 8.082-3.083 11.165 0s3.083 8.082 0 11.165l-16.747 16.747c-3.083 3.083-8.082 3.083-11.165 0s-3.083-8.082 0-11.165l4.187-4.187-18.889-11.333c-2.374 1.287-4.894 2.339-7.53 3.122l-5.342 21.367h5.921c4.36 0 7.895 3.534 7.895 7.895 0 4.36-3.535 7.895-7.895 7.895h-23.684c-4.36 0-7.895-3.535-7.895-7.895s3.535-7.895 7.895-7.895h5.921l-5.342-21.367c-2.636-.783-5.156-1.834-7.53-3.122l-18.889 11.333 4.187 4.187c3.083 3.083 3.083 8.082 0 11.165s-8.082 3.083-11.165 0l-16.747-16.747c-3.083-3.083-3.083-8.082 0-11.165s8.082-3.083 11.165 0l4.187 4.187 11.333-18.889c-1.287-2.374-2.339-4.894-3.122-7.53l-21.367-5.342v5.921c0 4.36-3.535 7.895-7.895 7.895s-7.895-3.535-7.895-7.895v-23.684c0-4.36 3.535-7.895 7.895-7.895s7.895 3.535 7.895 7.895v5.921l21.367-5.342c.783-2.636 1.835-5.156 3.122-7.53l-11.333-18.889-4.187 4.187c-3.083 3.083-8.082 3.083-11.165 0-3.083-3.083-3.083-8.082 0-11.165l16.747-16.747c3.083-3.083 8.082-3.083 11.165 0s3.083 8.082 0 11.165l-4.187 4.187 18.889 11.333c2.374-1.287 4.894-2.339 7.53-3.122l5.342-21.367h-5.921c-4.36 0-7.895-3.535-7.895-7.895s3.535-7.895 7.895-7.895h23.684c4.36 0 7.895 3.535 7.895 7.895s-3.535 7.895-7.895 7.895h-5.921l5.342 21.367c2.636.783 5.156 1.834 7.53 3.122l18.889-11.333-4.187-4.187c-3.083-3.083-3.083-8.082 0-11.165s8.082-3.083 11.165 0l16.747 16.747c3.083 3.083 3.083 8.082 0 11.165-3.083 3.083-8.082 3.083-11.165 0l-4.187-4.187-11.333 18.889c1.287 2.374 2.339 4.894 3.122 7.53l21.367 5.342v-5.921c0-4.36 3.535-7.895 7.895-7.895 4.361 0 7.895 3.535 7.895 7.895z" fill="#f44545"/><path d="m327.895 389.737c-4.36 0-7.895-3.535-7.895-7.895v-8.684c0-4.36 3.535-7.895 7.895-7.895s7.895 3.535 7.895 7.895v8.684c0 4.36-3.535 7.895-7.895 7.895zm22.446-66.144-6.141 6.141c-3.083 3.083-3.083 8.082 0 11.165 3.083 3.083 8.082 3.083 11.165 0l6.141-6.141c3.083-3.083 3.083-8.082 0-11.165-3.084-3.083-8.082-3.083-11.165 0zm-5.583 94.902c-3.083-3.083-8.082-3.083-11.165 0s-3.083 8.082 0 11.165l6.141 6.141c3.083 3.083 8.082 3.083 11.165 0s3.083-8.082 0-11.165zm53.4-92.705h8.684c4.36 0 7.895-3.535 7.895-7.895s-3.535-7.895-7.895-7.895h-8.684c-4.36 0-7.895 3.535-7.895 7.895s3.535 7.895 7.895 7.895zm63.947 39.473c-4.36 0-7.895 3.535-7.895 7.895v8.684c0 4.36 3.535 7.895 7.895 7.895s7.895-3.535 7.895-7.895v-8.684c0-4.36-3.534-7.895-7.895-7.895zm-55.263 78.948h-8.684c-4.36 0-7.895 3.534-7.895 7.895 0 4.36 3.535 7.895 7.895 7.895h8.684c4.36 0 7.895-3.535 7.895-7.895 0-4.361-3.535-7.895-7.895-7.895zm38.958-103.312c3.083-3.083 3.083-8.082 0-11.165l-6.141-6.141c-3.083-3.083-8.082-3.083-11.165 0s-3.083 8.082 0 11.165l6.141 6.141c3.083 3.083 8.082 3.083 11.165 0zm-.558 77.596-6.141 6.141c-3.083 3.083-3.083 8.082 0 11.165s8.082 3.083 11.165 0l6.141-6.141c3.083-3.083 3.083-8.082 0-11.165-3.083-3.084-8.082-3.084-11.165 0zm-50.242-72.969c-6.84 0-13.274 1.74-18.883 4.801-3.062 5.609-4.802 12.043-4.802 18.883 0 21.801 17.673 39.474 39.474 39.474 6.84 0 13.274-1.74 18.883-4.801 3.061-5.609 4.801-12.043 4.801-18.883.001-21.801-17.672-39.474-39.473-39.474z" fill="#f76c57"/><path d="m406.053 360.526c0 2.18-1.767 3.947-3.947 3.947s-3.947-1.767-3.947-3.947 1.767-3.947 3.947-3.947c2.179 0 3.947 1.767 3.947 3.947zm0 11.842c0 4.36 3.535 7.895 7.895 7.895s7.895-3.535 7.895-7.895-3.535-7.895-7.895-7.895c-4.361.001-7.895 3.535-7.895 7.895zm-15.79 0c-4.36 0-7.895 3.535-7.895 7.895s3.535 7.895 7.895 7.895 7.895-3.535 7.895-7.895-3.535-7.895-7.895-7.895z" fill="#c42d2d"/></g></svg>