<svg height="512" viewBox="0 0 64 64" width="512" xmlns="http://www.w3.org/2000/svg"><g id="house-stay_at_home-coronavirus-covid-covid19-2" data-name="house-stay at home-coronavirus-covid-covid19"><path d="m58 55v6h-12a15 15 0 0 0 12-6z" fill="#78b9eb"/><path d="m56.5 41.5-13.5 13.5-8-7 3-4 5 4 10-10z" fill="#78b9eb"/><path d="m32 13-26 15v33h7v-22h14v22h19a15 15 0 1 1 12-24v-9zm6 16h-12v-8h12z" fill="#78b9eb"/><path d="m61 20v6l-29-17-29 17v-6l29-17z" fill="#78b9eb"/><g fill="#006df0"><path d="m61.506 19.137-4.506-2.637v-9.5a1 1 0 0 0 -1-1h-8a1 1 0 0 0 -1 1v3.634l-14.494-8.5a1.006 1.006 0 0 0 -1.012 0l-29 17a1 1 0 0 0 -.494.866v6a1 1 0 0 0 1.506.863l28.494-16.704 28.48 16.7a.99.99 0 0 0 .52.141 1 1 0 0 0 1-1v-6a1 1 0 0 0 -.494-.863zm-12.506-11.137h6v7.323l-6-3.517zm11 16.254-27.494-16.117a1 1 0 0 0 -1.012 0l-27.494 16.117v-3.681l28-16.414 28 16.414z"/><path d="m39 29v-8a1 1 0 0 0 -1-1h-12a1 1 0 0 0 -1 1v8a1 1 0 0 0 1 1h12a1 1 0 0 0 1-1zm-2-5h-4v-2h4zm-6-2v2h-4v-2zm-4 4h4v2h-4zm10 2h-4v-2h4z"/><path d="m16 46h2v4h-2z"/><path d="m59 36.71v-8.71a1 1 0 0 0 -.5-.87l-26-15a1.044 1.044 0 0 0 -1 0l-26 15a1 1 0 0 0 -.5.87v33a1 1 0 0 0 1 1h52a1 1 0 0 0 1-1v-5.71a15.884 15.884 0 0 0 0-18.58zm-33 23.29h-12v-20h12zm2 0v-21a1 1 0 0 0 -1-1h-14a1 1 0 0 0 -1 1v21h-5v-31.42l25-14.43 25 14.43v5.83a15.987 15.987 0 1 0 -18.73 25.59zm29 0h-3.27a16.15 16.15 0 0 0 3.27-2.41zm-11 0a14 14 0 1 1 14-14 14.015 14.015 0 0 1 -14 14z"/><path d="m52.293 37.293-9.367 9.367-4.3-3.441a1 1 0 0 0 -1.426.181l-3 4a1 1 0 0 0 .141 1.352l8 7a1 1 0 0 0 1.366-.045l13.5-13.5a1 1 0 0 0 0-1.414l-3.5-3.5a1 1 0 0 0 -1.414 0zm-9.338 16.338-6.6-5.773 1.825-2.433 4.194 3.356a1 1 0 0 0 1.332-.074l9.294-9.293 2.086 2.086z"/></g></g></svg>